<mxfile host="65bd71144e">
    <diagram id="key5beeev6hjzfXOzGgb" name="Page-1">
        <mxGraphModel dx="789" dy="447" grid="1" gridSize="10" guides="1" tooltips="1" connect="1" arrows="1" fold="1" page="1" pageScale="1" pageWidth="850" pageHeight="1100" math="0" shadow="0">
            <root>
                <mxCell id="0"/>
                <mxCell id="1" parent="0"/>
                <mxCell id="2" value="App" style="whiteSpace=wrap;html=1;" vertex="1" parent="1">
                    <mxGeometry x="270" y="60" width="120" height="60" as="geometry"/>
                </mxCell>
                <mxCell id="3" value="Header" style="whiteSpace=wrap;html=1;" vertex="1" parent="1">
                    <mxGeometry x="180" y="160" width="120" height="60" as="geometry"/>
                </mxCell>
                <mxCell id="4" value="Main Container" style="whiteSpace=wrap;html=1;" vertex="1" parent="1">
                    <mxGeometry x="380" y="160" width="120" height="60" as="geometry"/>
                </mxCell>
                <mxCell id="5" value="" style="edgeStyle=none;orthogonalLoop=1;jettySize=auto;html=1;entryX=0.5;entryY=0;entryDx=0;entryDy=0;" edge="1" parent="1" target="3">
                    <mxGeometry width="80" relative="1" as="geometry">
                        <mxPoint x="320" y="120" as="sourcePoint"/>
                        <mxPoint x="400" y="120" as="targetPoint"/>
                        <Array as="points"/>
                    </mxGeometry>
                </mxCell>
                <mxCell id="6" value="" style="edgeStyle=none;orthogonalLoop=1;jettySize=auto;html=1;exitX=0.5;exitY=1;exitDx=0;exitDy=0;entryX=0.5;entryY=0;entryDx=0;entryDy=0;" edge="1" parent="1" source="2" target="4">
                    <mxGeometry width="80" relative="1" as="geometry">
                        <mxPoint x="330" y="130" as="sourcePoint"/>
                        <mxPoint x="250" y="170" as="targetPoint"/>
                        <Array as="points"/>
                    </mxGeometry>
                </mxCell>
                <mxCell id="7" value="Search Bar" style="whiteSpace=wrap;html=1;" vertex="1" parent="1">
                    <mxGeometry x="270" y="250" width="120" height="60" as="geometry"/>
                </mxCell>
                <mxCell id="8" value="Stock Container" style="whiteSpace=wrap;html=1;" vertex="1" parent="1">
                    <mxGeometry x="430" y="250" width="120" height="60" as="geometry"/>
                </mxCell>
                <mxCell id="9" value="" style="edgeStyle=none;orthogonalLoop=1;jettySize=auto;html=1;entryX=0.5;entryY=0;entryDx=0;entryDy=0;" edge="1" parent="1" target="7">
                    <mxGeometry width="80" relative="1" as="geometry">
                        <mxPoint x="440" y="220" as="sourcePoint"/>
                        <mxPoint x="360" y="260" as="targetPoint"/>
                        <Array as="points"/>
                    </mxGeometry>
                </mxCell>
                <mxCell id="10" value="" style="edgeStyle=none;orthogonalLoop=1;jettySize=auto;html=1;entryX=0.5;entryY=0;entryDx=0;entryDy=0;" edge="1" parent="1" target="8">
                    <mxGeometry width="80" relative="1" as="geometry">
                        <mxPoint x="440" y="220" as="sourcePoint"/>
                        <mxPoint x="360" y="260" as="targetPoint"/>
                        <Array as="points"/>
                    </mxGeometry>
                </mxCell>
                <mxCell id="11" value="Portfolio Container" style="whiteSpace=wrap;html=1;" vertex="1" parent="1">
                    <mxGeometry x="580" y="250" width="120" height="60" as="geometry"/>
                </mxCell>
                <mxCell id="12" value="" style="edgeStyle=none;orthogonalLoop=1;jettySize=auto;html=1;entryX=0.5;entryY=0;entryDx=0;entryDy=0;" edge="1" parent="1" target="11">
                    <mxGeometry width="80" relative="1" as="geometry">
                        <mxPoint x="440" y="220" as="sourcePoint"/>
                        <mxPoint x="490" y="250" as="targetPoint"/>
                        <Array as="points"/>
                    </mxGeometry>
                </mxCell>
            </root>
        </mxGraphModel>
    </diagram>
</mxfile>